<?xml version="1.0" encoding="utf-8"?>
<!-- created with diagram-js -->
<!DOCTYPE svg PUBLIC "-//W3C//DTD SVG 1.1//EN" "http://www.w3.org/Graphics/SVG/1.1/DTD/svg11.dtd">
<svg xmlns="http://www.w3.org/2000/svg" xmlns:xlink="http://www.w3.org/1999/xlink" width="517" height="347" viewBox="354 264 517 347" version="1.1"><defs><marker id="default-condition-flow-end-_FEA00F-_FEA00F-4fdbgbnm59f07obnqevjbktiy-undefined-undefined" viewBox="0 0 20 20" refX="19.1" refY="7.2" markerWidth="11" markerHeight="11" orient="auto"><path d="M 17.83,7.19 C 17.83,9.29 16.20,10.99 14.18,10.99 12.16,10.99 10.52,9.29 10.52,7.19 10.52,5.09 12.16,3.38 14.18,3.38 16.20,3.38 17.83,5.09 17.83,7.19 Z M 10.59,7.18 C 10.59,7.18 5.29,9.56 5.29,9.56 5.29,9.56 -0.00,11.94 -0.00,11.94 -0.00,11.94 0.01,7.16 0.01,7.16 0.01,7.16 0.03,2.37 0.03,2.37 0.03,2.37 5.31,4.77 5.31,4.77 5.31,4.77 10.59,7.18 10.59,7.18 Z" style="fill: rgb(254, 160, 15); stroke-width: 1px; stroke-linecap: butt; stroke-dasharray: 10000px, 1px; stroke: rgb(254, 160, 15);"/></marker><marker id="default-exclude-flow-end-_FB1818-_FB1818-4fdbgbnm59f07obnqevjbktiy-undefined-undefined" viewBox="0 0 20 20" refX="21" refY="7.73" markerWidth="8" markerHeight="8" orient="auto"><g style="fill: rgb(251, 24, 24); stroke-width: 1px; stroke-linecap: butt; stroke-dasharray: 10000px, 1px; stroke: rgb(251, 24, 24);"><rect x="10" y="4" width="20" height="100" style="fill: white; stroke: none;"/><path d="M 18.28,0.00 C 18.28,0.00 20.00,0.92 20.00,0.92 20.00,0.92 11.84,14.84 11.84,14.84 11.84,14.84 10.12,13.92 10.12,13.92 10.12,13.92 18.28,0.00 18.28,0.00 Z M 16.61,13.64 C 16.61,14.39 17.23,15.00 18.01,15.00 18.78,15.00 19.41,14.39 19.41,13.64 19.41,12.88 18.78,12.27 18.01,12.27 17.23,12.27 16.61,12.88 16.61,13.64 Z M 13.74,1.47 C 13.74,2.22 13.11,2.83 12.34,2.83 11.56,2.83 10.94,2.22 10.94,1.47 10.94,0.72 11.56,0.11 12.34,0.11 13.11,0.11 13.74,0.72 13.74,1.47 Z M 12.25,7.81 C 12.25,7.81 6.13,11.23 6.13,11.23 6.13,11.23 -0.00,14.65 -0.00,14.65 -0.00,14.65 0.02,7.78 0.02,7.78 0.02,7.78 0.03,0.92 0.03,0.92 0.03,0.92 6.14,4.36 6.14,4.36 6.14,4.36 12.25,7.81 12.25,7.81 Z"/></g></marker></defs><g class="djs-group"><g class="djs-element djs-connection selected" data-element-id="Relation_152g689" style="display: block;"><g class="djs-visual"><path d="m  675,345L710,345 L710,530 L735,530 " style="fill: none; stroke-width: 2px; stroke-linejoin: round; stroke: rgb(251, 24, 24); marker-end: url('#default-exclude-flow-end-_FB1818-_FB1818-4fdbgbnm59f07obnqevjbktiy-undefined-undefined');"/></g><path d="M675,345L710,345L710,530L735,530" style="fill: none; stroke-opacity: 0; stroke: white; stroke-width: 15px;" class="djs-hit djs-hit-stroke"/><rect x="669" y="339" rx="4" width="72" height="197" style="fill: none;" class="djs-outline"/></g></g><g class="djs-group"><g class="djs-element djs-connection" data-element-id="Relation_1nhb59f" style="display: block;"><g class="djs-visual"><path d="m  675,345L735,345 " style="fill: none; stroke-width: 2px; stroke-linejoin: round; stroke: rgb(254, 160, 15); marker-end: url('#default-condition-flow-end-_FEA00F-_FEA00F-4fdbgbnm59f07obnqevjbktiy-undefined-undefined');"/></g><path d="M675,345L735,345" style="fill: none; stroke-opacity: 0; stroke: white; stroke-width: 15px;" class="djs-hit djs-hit-stroke"/><rect x="669" y="339" rx="4" width="72" height="12" style="fill: none;" class="djs-outline"/></g></g><g class="djs-group"><g class="djs-element djs-connection" data-element-id="Relation_1o4xci3" style="display: block;"><g class="djs-visual"><path d="m  490,345L545,345 " style="fill: none; stroke-width: 2px; stroke-linejoin: round; stroke: rgb(254, 160, 15); marker-end: url('#default-condition-flow-end-_FEA00F-_FEA00F-4fdbgbnm59f07obnqevjbktiy-undefined-undefined');"/></g><path d="M490,345L545,345" style="fill: none; stroke-opacity: 0; stroke: white; stroke-width: 15px;" class="djs-hit djs-hit-stroke"/><rect x="484" y="339" rx="4" width="67" height="12" style="fill: none;" class="djs-outline"/></g></g><g class="djs-group"><g class="djs-element djs-shape" data-element-id="Event_0sps5w1" transform="matrix(1, 0, 0, 1, 360, 270)" style="display: block;"><g class="djs-visual"><rect x="0" y="0" width="130" height="150" rx="7" ry="7" style="fill: white; fill-opacity: 0.35; stroke: black; stroke-width: 2px;"/><path style="fill: none; stroke: black; stroke-width: 2px;" d="M0,30L130,30"/><text style="font-family: IBM Plex, sans-serif; font-size: 16px; font-weight: normal;" lineHeight="1.2" class="djs-label"><tspan x="65" y="19.8"/></text></g><rect style="fill: none; stroke-opacity: 0; stroke: white; stroke-width: 15px;" class="djs-hit djs-hit-all" x="0" y="0" width="130" height="150"/><rect x="-6" y="-6" rx="4" width="142" height="162" style="fill: none;" class="djs-outline"/></g></g><g class="djs-group"><g class="djs-element djs-shape" data-element-id="Event_1moo7u9" transform="matrix(1, 0, 0, 1, 545, 270)" style="display: block;"><g class="djs-visual"><rect x="0" y="0" width="130" height="150" rx="7" ry="7" style="fill: white; fill-opacity: 0.35; stroke: black; stroke-width: 2px;"/><path style="fill: none; stroke: black; stroke-width: 2px;" d="M0,30L130,30"/><text style="font-family: IBM Plex, sans-serif; font-size: 16px; font-weight: normal;" lineHeight="1.2" class="djs-label"><tspan x="65" y="19.8"/></text></g><rect style="fill: none; stroke-opacity: 0; stroke: white; stroke-width: 15px;" class="djs-hit djs-hit-all" x="0" y="0" width="130" height="150"/><rect x="-6" y="-6" rx="4" width="142" height="162" style="fill: none;" class="djs-outline"/></g></g><g class="djs-group"><g class="djs-element djs-shape" data-element-id="Event_02c28a0" transform="matrix(1, 0, 0, 1, 735, 270)" style="display: block;"><g class="djs-visual"><rect x="0" y="0" width="130" height="150" rx="7" ry="7" style="fill: white; fill-opacity: 0.35; stroke: black; stroke-width: 2px;"/><path style="fill: none; stroke: black; stroke-width: 2px;" d="M0,30L130,30"/><text style="font-family: IBM Plex, sans-serif; font-size: 16px; font-weight: normal;" lineHeight="1.2" class="djs-label"><tspan x="65" y="19.8"/></text></g><rect style="fill: none; stroke-opacity: 0; stroke: white; stroke-width: 15px;" class="djs-hit djs-hit-all" x="0" y="0" width="130" height="150"/><rect x="-6" y="-6" rx="4" width="142" height="162" style="fill: none;" class="djs-outline"/></g></g><g class="djs-group"><g class="djs-element djs-shape" data-element-id="Event_13ca5qb" transform="matrix(1, 0, 0, 1, 735, 455)" style="display: block;"><g class="djs-visual"><rect x="0" y="0" width="130" height="150" rx="7" ry="7" style="fill: white; fill-opacity: 0.35; stroke: black; stroke-width: 2px;"/><path style="fill: none; stroke: black; stroke-width: 2px;" d="M0,30L130,30"/><text style="font-family: IBM Plex, sans-serif; font-size: 16px; font-weight: normal;" lineHeight="1.2" class="djs-label"><tspan x="65" y="19.8"/></text></g><rect style="fill: none; stroke-opacity: 0; stroke: white; stroke-width: 15px;" class="djs-hit djs-hit-all" x="0" y="0" width="130" height="150"/><rect x="-6" y="-6" rx="4" width="142" height="162" style="fill: none;" class="djs-outline"/></g></g></svg>